PathFileType	4	(X/Y/Z)	C:\Github\BTS_project\Data\sports2d_results\Single_Hop4 Exam_2026-03-06_123833_tvc2_Sports2D\Single_Hop4 Exam_2026-03-06_123833_tvc2_Sports2D_px_person00.trc
DataRate	CameraRate	NumFrames	NumMarkers	Units	OrigDataRate	OrigDataStartFrame	OrigNumFrames
30.0	30.0	9	22	m	30.0	243	278
Frame#	Time	Hip			RHip			RKnee			RAnkle			RBigToe			RSmallToe			RHeel			LHip			LKnee			LAnkle			LBigToe			LSmallToe			LHeel			Neck			Head			Nose			RShoulder			RElbow			RWrist			LShoulder			LElbow			LWrist			
		X1	Y1	Z1	X2	Y2	Z2	X3	Y3	Z3	X4	Y4	Z4	X5	Y5	Z5	X6	Y6	Z6	X7	Y7	Z7	X8	Y8	Z8	X9	Y9	Z9	X10	Y10	Z10	X11	Y11	Z11	X12	Y12	Z12	X13	Y13	Z13	X14	Y14	Z14	X15	Y15	Z15	X16	Y16	Z16	X17	Y17	Z17	X18	Y18	Z18	X19	Y19	Z19	X20	Y20	Z20	X21	Y21	Z21	X22	Y22	Z22
243	8.12924187725632	444.6250213617372	692.0365346309188	0.0	403.864569410262	698.7944121161161	0.0	376.03672433093055	828.6971897660559	0.0	405.23764204074894	876.491747069836	0.0	391.4125148779882	936.4875955329724	0.0	377.18659444805763	923.0771532964227	0.0	415.90210959612716	875.2299686428732	0.0	481.70551741555414	711.2026511760153	0.0	469.39844288862633	863.2024350752449	0.0	452.0274239308615	992.5505558119653	0.0	436.0028303968074	1047.988200549664	0.0	463.92903091906084	1041.794929072677	0.0	447.31036478220364	1002.3935757045751	0.0	482.3793943286197	470.86610492679927	0.0	496.06167986423907	369.04435013279425	0.0	495.8156648316966	420.0497783394916	0.0	400.74780131807233	485.88782108947396	0.0	333.94237061440685	545.1319467737849	0.0	353.7186405718309	631.0744352993293	0.0	556.2363672848918	502.4585455419853	0.0	609.850921783317	578.9710114210144	0.0	560.7411137686514	648.8716552971898	0.0
244	8.162695547533094	444.9771305354245	691.9559343858493	0.0	404.0938591951927	698.8222960820825	0.0	376.1358070505574	828.6385306701404	0.0	404.8380982273075	877.7010094637757	0.0	390.7784741177761	937.7792366233297	0.0	377.03808770982266	924.6548466916864	0.0	415.59032340610105	876.0754499673277	0.0	482.1706952877423	711.1791291601503	0.0	469.6585534402784	862.6867430591183	0.0	452.40536270148215	992.4580258033529	0.0	436.321052556477	1047.537769037101	0.0	465.0359512930127	1041.6206625820482	0.0	447.7696146199226	1002.9820766080526	0.0	482.474178989155	470.6960700707278	0.0	496.0621296934627	369.02982925411436	0.0	495.481933357383	419.82869588952383	0.0	401.08721856645866	485.85509461922936	0.0	333.9183241148487	545.0924643492884	0.0	353.7581437154594	630.8919471385359	0.0	556.1757850850232	502.17977867882774	0.0	609.2429746420619	579.4856394162769	0.0	560.6781780421004	648.1357151963211	0.0
245	8.19614921780987	445.2009327079861	692.2144106457034	0.0	404.4829797553766	698.8272678820435	0.0	376.0216155968642	828.4968310722764	0.0	404.6499026973699	878.1695589063711	0.0	390.43744668254243	938.899099924593	0.0	376.8935020040336	925.4554987830836	0.0	415.38094846755405	876.7282536004305	0.0	482.4314255541872	711.189644286015	0.0	470.0618421120329	862.3459741812375	0.0	452.7286079149093	992.6021267165603	0.0	436.7522086879965	1047.5991902403023	0.0	465.3233208213958	1043.175439364915	0.0	448.2201421473437	1003.2890419894816	0.0	482.51829507841916	470.54205302393325	0.0	496.07375407689653	368.92106952033606	0.0	495.20950914369286	419.34773000956585	0.0	401.51892924044535	485.4432251128015	0.0	333.9549750550733	544.7794107122673	0.0	353.6677920649087	630.6491655944101	0.0	556.0808636154807	501.83123324701785	0.0	608.9393661158576	579.5937193442709	0.0	560.6191153311083	647.6776514858462	0.0
246	8.229602888086644	445.40487237107675	692.6348014349751	0.0	404.64374614144504	698.7501619953398	0.0	376.29179079747183	828.4997509660961	0.0	404.6170899805025	877.7441402908113	0.0	390.54323722850495	939.2556990336298	0.0	376.61778134026457	925.3204303074053	0.0	415.37459861646056	876.8588892782365	0.0	482.65714051560445	711.3402640344755	0.0	470.3049122360859	862.4486981222756	0.0	452.59063060594866	992.87120537329	0.0	437.0518123518382	1047.9561639442927	0.0	464.85260664259863	1044.41958085199	0.0	448.40159978657755	1003.8615476473348	0.0	482.1937123242179	470.35509048899473	0.0	496.1891912284434	368.7897244204813	0.0	495.4651546610751	419.2377775514301	0.0	401.5578751289915	484.9194005608552	0.0	333.91622007381903	545.3063397231527	0.0	353.60925493529135	630.6155021043224	0.0	556.0661022035815	501.4922729351196	0.0	608.9310896686603	579.1378649728888	0.0	560.4767901493497	647.8693149804084	0.0
247	8.263056558363418	445.6369884519511	692.7948599847886	0.0	404.6364134812174	698.3516327191219	0.0	377.1886528710054	828.6190194626317	0.0	404.61095631458716	877.1580352266061	0.0	390.6900406852921	938.7230071596107	0.0	376.2925156536456	924.9286221461641	0.0	415.45422102396356	876.6859090556093	0.0	482.80318013892884	711.437657319084	0.0	470.4810902223599	862.5683710943988	0.0	452.19573971826674	992.8914211129693	0.0	436.87088704635846	1048.2993678013654	0.0	464.2825624808277	1044.0286705622182	0.0	448.22695159111237	1004.6457871380555	0.0	481.6197907059243	470.1770064020585	0.0	496.3197028643246	368.6634297302231	0.0	495.71697550599305	419.4290625409986	0.0	401.3728932985846	484.9019198974722	0.0	333.8518402235682	546.6249848897032	0.0	353.6193727909881	630.6936866801607	0.0	556.1701892453267	501.63290487986427	0.0	608.63967427491	578.7114130625616	0.0	560.1956222605631	648.2228155973355	0.0
248	8.296510228640194	445.8875651153178	692.5007677257522	0.0	404.6582553359043	697.8163397485102	0.0	377.8744897013006	828.648792533829	0.0	404.83210729601205	876.9282182298548	0.0	390.4445319470516	937.778104784359	0.0	376.0423170282936	924.8645852307413	0.0	415.5775844218103	876.8140039104791	0.0	482.9302558351834	711.2059461724152	0.0	470.783693330363	862.4778908750551	0.0	452.1264979076234	992.7745301676479	0.0	436.3466160092122	1048.4634668753513	0.0	463.96731893964414	1043.0327578070828	0.0	447.6627994017149	1004.8814735755283	0.0	481.39816643352725	469.97940917657684	0.0	496.47919853989873	368.50804811976445	0.0	495.8346816398324	419.19480978420154	0.0	401.33550088162855	485.3994374853561	0.0	334.0188408119043	547.1746476455386	0.0	353.522351236848	630.5003273716922	0.0	556.2583833985301	502.18074228640336	0.0	608.0350254768215	578.7507923802149	0.0	560.0770955308568	648.3750428621142	0.0
249	8.329963898916969	446.12957478264434	692.0890542097574	0.0	404.74352868232586	697.5431345962464	0.0	377.67673211227833	828.5850843469831	0.0	405.3831418394992	876.9899305723875	0.0	389.88284908005	937.1366992677724	0.0	375.8706909219997	925.033172238655	0.0	415.83563472625417	877.3127948636952	0.0	483.1692816465117	710.6432210601514	0.0	471.058933226627	862.4495925750821	0.0	452.33621586359965	992.8184942175712	0.0	435.98767667721717	1048.2503331705484	0.0	464.06603202014264	1042.6994131010497	0.0	446.91053453376264	1004.3306028949485	0.0	481.9497580984543	469.67540321584346	0.0	496.764752857558	368.26261718662823	0.0	496.2839756885446	418.4269942284627	0.0	401.66037598254616	485.71952630930457	0.0	334.3552052037193	546.1672337390733	0.0	353.37186318677243	630.2368296467494	0.0	556.1807935690047	502.4276091280801	0.0	607.5804684540894	579.0749171704958	0.0	560.4490262091949	648.3528424396991	0.0
250	8.363417569193745	446.272878748544	691.9680014353174	0.0	404.77388348476586	697.3837329324649	0.0	377.2960610012643	828.6378704867351	0.0	405.6951785883051	877.1073313633589	0.0	389.4171706767929	937.0542031183845	0.0	375.68891669239315	925.1532999318829	0.0	415.8667705190014	877.6056411041804	0.0	483.40731915341564	709.894019194192	0.0	471.15471477079996	862.4979353810269	0.0	452.4768378208806	992.921645566425	0.0	435.8939839642258	1047.4954824964755	0.0	464.4628687259032	1042.6182733215308	0.0	446.3640031630983	1003.6893501338386	0.0	482.7021511464755	469.5583809245642	0.0	496.6394393074364	368.15137573196887	0.0	496.65424197305987	417.7978617559099	0.0	402.1787466324902	485.5997872706051	0.0	334.42730342526636	545.0990731721188	0.0	353.4417353215905	630.4480337524668	0.0	555.9584298776161	502.2098181421517	0.0	607.4162206822615	579.39171950949	0.0	560.8193669173755	648.2756492561236	0.0
251	8.396871239470519	446.29158332497855	692.1164569968222	0.0	404.74628104961386	697.1973272424862	0.0	377.65255525599855	828.9671537277612	0.0	405.2127299048403	877.293511328756	0.0	389.1938401364754	937.3860642110191	0.0	375.5466669384429	925.2020042225665	0.0	415.3881278095005	877.7115188641166	0.0	483.4418317850643	709.2816815447957	0.0	471.1340158196861	862.3501771324256	0.0	452.4979929204368	992.8793381133191	0.0	435.7093413401841	1046.757033106896	0.0	464.4197988556517	1042.391433732015	0.0	446.19874539225265	1003.4258310381897	0.0	482.6728537585964	470.15956402521516	0.0	495.48876511411135	368.5398418819321	0.0	496.13428056761745	417.79496404674387	0.0	402.31901180893334	485.74670395195153	0.0	334.0344231597852	545.7182021580211	0.0	353.7037409272105	631.024102615515	0.0	555.6956115276816	502.29628063524325	0.0	607.4116277529824	579.7019687742994	0.0	560.5280879445629	648.2603031884023	0.0
